<?xml version="1.0" encoding="UTF-8"?>
<svg version="1.1" xmlns="http://www.w3.org/2000/svg" width="203" height="194">
<path d="M0 0 C1.36469421 -0.01007584 1.36469421 -0.01007584 2.75695801 -0.02035522 C5.75575268 -0.03930505 8.75432305 -0.04325829 11.75317383 -0.04541016 C13.84817088 -0.05184149 15.94316704 -0.0585701 18.03816223 -0.06558228 C22.4286202 -0.07754847 26.81899954 -0.0812639 31.20947266 -0.08007812 C36.81344066 -0.07987528 42.41689959 -0.10714494 48.02074718 -0.14162254 C52.34898659 -0.16395167 56.6771048 -0.16791378 61.00539589 -0.16685867 C63.07009951 -0.16920683 65.13480687 -0.17798568 67.19945335 -0.19352341 C81.21218426 -0.28908213 93.14086104 -0.22543093 103.82739258 10.00146484 C111.46422019 18.98777203 112.69071118 28.85946507 111.77270508 40.29052734 C110.85267569 43.59405255 109.5238889 46.35364615 107.77270508 49.29052734 C107.19520508 50.34240234 106.61770508 51.39427734 106.02270508 52.47802734 C100.5694186 59.29463544 93.06016021 63.85381217 84.37036133 65.02099609 C82.8598063 65.18447608 81.34799627 65.33672979 79.83520508 65.47802734 C79.0559668 65.55988281 78.27672852 65.64173828 77.47387695 65.72607422 C75.57449711 65.92416905 73.67371746 66.10876576 71.77270508 66.29052734 C71.76905945 66.85936142 71.76541382 67.4281955 71.76165771 68.01426697 C71.71964086 73.9688205 71.65016266 79.92261695 71.56518555 85.87670898 C71.53707046 88.09473068 71.51580916 90.3128508 71.50170898 92.53100586 C71.48014848 95.7313034 71.43343001 98.93042921 71.38208008 102.13037109 C71.38085144 103.11198715 71.3796228 104.09360321 71.37835693 105.10496521 C71.17288741 114.90291259 67.57716771 123.18696746 60.77270508 130.29052734 C57.9052995 132.53957068 54.93596379 134.48459419 51.77270508 136.29052734 C51.1771582 136.66435547 50.58161133 137.03818359 49.96801758 137.42333984 C43.52249078 139.96943762 34.79362852 139.24539741 28.30004883 137.19287109 C19.94501503 133.23188794 12.0684517 127.25953878 8.77270508 118.29052734 C6.24275292 107.35649349 6.34365252 96.13580535 6.14770508 84.97802734 C6.1094268 83.15834922 6.07036977 81.3386873 6.03051758 79.51904297 C5.93561523 75.10967289 5.85120454 70.70021868 5.77270508 66.29052734 C4.60497559 66.17153076 3.43724609 66.05253418 2.23413086 65.92993164 C0.68704761 65.76279035 -0.85998773 65.59520507 -2.40698242 65.42724609 C-3.17486084 65.35018433 -3.94273926 65.27312256 -4.73388672 65.19372559 C-13.48595056 64.22362296 -19.67632832 60.76407487 -25.65698242 54.28271484 C-32.53424706 45.55782687 -34.03806836 36.24234373 -32.92260742 25.30224609 C-31.30980095 17.49228599 -26.89009547 12.68089075 -21.22729492 7.29052734 C-20.38038086 6.46681641 -20.38038086 6.46681641 -19.51635742 5.62646484 C-13.64381923 0.313216 -7.51648913 -0.00802001 0 0 Z " fill="#061123" transform="translate(60.227294921875,20.70947265625)"/>
<path d="M0 0 C1.01037827 0.00222061 2.02075653 0.00444122 3.06175232 0.00672913 C4.77341331 0.00684242 4.77341331 0.00684242 6.51965332 0.00695801 C7.76129745 0.01211929 9.00294159 0.01728058 10.2822113 0.02259827 C12.17785072 0.02472069 12.17785072 0.02472069 14.11178589 0.02688599 C17.47705394 0.0315487 20.84225495 0.04053972 24.20750427 0.05158997 C27.63930175 0.06180606 31.07110614 0.06638403 34.50291443 0.07142639 C41.2405633 0.08248071 47.9781803 0.09923742 54.71580505 0.12025452 C52.59672913 7.13546021 49.14951464 10.65594935 42.71580505 14.12025452 C42.12638123 14.47329651 41.5369574 14.8263385 40.92967224 15.19007874 C38.11429255 16.37298529 35.90599389 16.34668501 32.85643005 16.31556702 C31.74139099 16.3091217 30.62635193 16.30267639 29.4775238 16.29603577 C28.31865662 16.27927795 27.15978943 16.26252014 25.96580505 16.24525452 C24.79146912 16.23623108 23.61713318 16.22720764 22.4072113 16.21791077 C19.50986969 16.19435514 16.61294064 16.16146104 13.71580505 16.12025452 C13.72246689 16.84608734 13.72912872 17.57192017 13.73599243 18.31974792 C13.79621926 25.1755515 13.84183817 32.03131528 13.87124157 38.88731575 C13.88686668 42.41169183 13.90804649 45.93584846 13.94212341 49.46009827 C13.98109457 53.51610873 13.99554028 57.57189032 14.0087738 61.62806702 C14.02425766 62.88765228 14.03974152 64.14723755 14.05569458 65.44499207 C14.05592117 66.62576324 14.05614777 67.80653442 14.05638123 69.02308655 C14.06304306 70.05789154 14.0697049 71.09269653 14.0765686 72.15885925 C13.34055958 78.20052738 10.2460009 82.2372295 5.71580505 86.12025452 C2.29741456 87.87113745 0.65196486 88.12025452 -3.28419495 88.12025452 C-3.30731749 76.79413822 -3.32510958 65.46802749 -3.33600712 54.14189243 C-3.34123614 48.88328788 -3.34833413 43.62469942 -3.3596344 38.36610413 C-3.3704626 33.29572325 -3.37647164 28.2253579 -3.37907219 23.15496635 C-3.38092656 21.21598504 -3.3845474 19.27700461 -3.389925 17.33802986 C-3.39713455 14.63203692 -3.39818593 11.92610896 -3.39772034 9.22010803 C-3.40131561 8.41018906 -3.40491089 7.60027008 -3.40861511 6.76580811 C-3.39626871 0.17880114 -3.39626871 0.17880114 0 0 Z " fill="#F1F3E0" transform="translate(105.28419494628906,58.87974548339844)"/>
<path d="M0 0 C0.87530869 -0.0049649 1.75061737 -0.00992981 2.65245056 -0.01504517 C5.54662871 -0.02964296 8.44075203 -0.03646526 11.33496094 -0.04199219 C13.35032146 -0.04774613 15.36568198 -0.05350383 17.38104248 -0.05926514 C21.6077093 -0.06976871 25.83435713 -0.07561542 30.06103516 -0.07910156 C35.46571852 -0.08458124 40.87014932 -0.10860082 46.27475357 -0.13707352 C50.43901288 -0.15573781 54.60321186 -0.16090755 58.76750946 -0.16243744 C60.75932952 -0.16545654 62.7511487 -0.17345988 64.74292755 -0.18662262 C67.5358425 -0.2037604 70.32814692 -0.20178389 73.12109375 -0.1953125 C73.93696457 -0.20452728 74.75283539 -0.21374207 75.59342957 -0.22323608 C81.74732796 -0.17877923 87.35140348 0.84637468 92.34277344 4.73925781 C92.78878906 5.29097656 93.23480469 5.84269531 93.69433594 6.41113281 C94.3865625 7.22324219 94.3865625 7.22324219 95.09277344 8.05175781 C96.31933594 10.16113281 96.31933594 10.16113281 98.31933594 17.16113281 C58.05933594 17.16113281 17.79933594 17.16113281 -23.68066406 17.16113281 C-18.7151865 4.74743891 -18.7151865 4.74743891 -12.68066406 1.16113281 C-8.48812809 -0.08938496 -4.33946701 0.00588726 0 0 Z " fill="#FBFCE3" transform="translate(62.6806640625,32.8388671875)"/>
<path d="M0 0 C17.49 0 34.98 0 53 0 C53.33 28.71 53.66 57.42 54 87 C48.19568451 85.8391369 45.78068155 84.3966127 42 80 C37.96599041 72.22423104 37.45131505 64.72180421 37.609375 56.11328125 C37.61503479 54.93025925 37.62069458 53.74723724 37.62652588 52.52836609 C37.64872592 48.78931372 37.69889312 45.05125752 37.75 41.3125 C37.77008608 38.76108165 37.78833313 36.20964812 37.8046875 33.65820312 C37.84853695 27.43846832 37.91528363 21.21930536 38 15 C37.35562988 15.02618408 36.71125977 15.05236816 36.04736328 15.0793457 C33.07349921 15.1845092 30.10002777 15.24869732 27.125 15.3125 C26.11179687 15.35439453 25.09859375 15.39628906 24.0546875 15.43945312 C16.68527734 15.55755265 11.11220639 14.24980324 5 10 C2.05300487 6.97072624 0 4.37600382 0 0 Z " fill="#42596B" transform="translate(41,60)"/>
<path d="M0 0 C1.26085419 0.0001133 1.26085419 0.0001133 2.54718018 0.00022888 C3.89426056 0.00797081 3.89426056 0.00797081 5.26855469 0.01586914 C6.19512878 0.01728409 7.12170288 0.01869904 8.07635498 0.02015686 C11.03107961 0.02574715 13.98572802 0.03829789 16.94042969 0.05102539 C18.94563693 0.05604165 20.95084535 0.06060433 22.95605469 0.06469727 C27.86754232 0.07571341 32.77897309 0.09297139 37.69042969 0.11352539 C37.57530816 1.84337781 37.44787292 3.5724129 37.31542969 5.30102539 C37.24582031 6.26395508 37.17621094 7.22688477 37.10449219 8.21899414 C36.67268597 11.23756404 36.2223045 13.46798699 34.69042969 16.11352539 C31.31568041 17.05356374 28.11360072 17.23606588 24.62475586 17.22705078 C23.64411667 17.22697525 22.66347748 17.22689972 21.65312195 17.2268219 C20.60711319 17.22166061 19.56110443 17.21649933 18.48339844 17.21118164 C17.40286697 17.20976669 16.32233551 17.20835175 15.20906067 17.20689392 C11.76532192 17.20130619 8.32164871 17.18875589 4.87792969 17.17602539 C2.54004 17.17100881 0.2021493 17.16644618 -2.13574219 17.16235352 C-7.86037384 17.15134077 -13.58496739 17.1346148 -19.30957031 17.11352539 C-18.7273689 15.51681911 -18.13078003 13.92535492 -17.52832031 12.33618164 C-17.03235352 11.00598999 -17.03235352 11.00598999 -16.52636719 9.64892578 C-14.68614917 5.81452287 -11.94405223 3.27349162 -8.30957031 1.11352539 C-5.47892948 0.25438618 -2.95096833 -0.00888846 0 0 Z " fill="#A8BABB" transform="translate(58.3095703125,32.886474609375)"/>
<path d="M0 0 C12.87 0 25.74 0 39 0 C39 0.33 39 0.66 39 1 C27.12 1 15.24 1 3 1 C3 6.28 3 11.56 3 17 C-0.63 17 -4.26 17 -8 17 C-8 16.67 -8 16.34 -8 16 C-6.35 15.67 -4.7 15.34 -3 15 C-2.01 10.05 -1.02 5.1 0 0 Z " fill="#E6E8D4" transform="translate(96,33)"/>
<path d="M0 0 C0.99 0.66 1.98 1.32 3 2 C3 2.99 3 3.98 3 5 C-10.86 5 -24.72 5 -39 5 C-35.02591544 3.01295772 -33.764148 2.77890551 -29.53515625 2.91015625 C-28.48779297 2.93013672 -27.44042969 2.95011719 -26.36132812 2.97070312 C-24.16590032 3.03179555 -21.97058005 3.09688607 -19.77539062 3.16601562 C-18.20241211 3.19405273 -18.20241211 3.19405273 -16.59765625 3.22265625 C-15.64383057 3.25109619 -14.69000488 3.27953613 -13.70727539 3.30883789 C-8.3400707 2.69656321 -5.81004113 -0.63152621 0 0 Z " fill="#FAFDF4" transform="translate(139,45)"/>
<path d="M0 0 C1.32 0.33 2.64 0.66 4 1 C3.649375 2.0725 3.29875 3.145 2.9375 4.25 C2.075965 7.69614001 1.89882959 8.81884104 3 12 C2.67 12.33 2.34 12.66 2 13 C1.84213692 14.85174706 1.74892644 16.7090911 1.68359375 18.56640625 C1.64169922 19.69111328 1.59980469 20.81582031 1.55664062 21.97460938 C1.51732422 23.15861328 1.47800781 24.34261719 1.4375 25.5625 C1.39431641 26.75037109 1.35113281 27.93824219 1.30664062 29.16210938 C1.20016454 32.10794784 1.09815159 35.0538743 1 38 C0.67 38 0.34 38 0 38 C0 25.46 0 12.92 0 0 Z " fill="#F3FBFA" transform="translate(103,60)"/>
<path d="M0 0 C-0.33 1.32 -0.66 2.64 -1 4 C-1.639375 4.103125 -2.27875 4.20625 -2.9375 4.3125 C-3.618125 4.539375 -4.29875 4.76625 -5 5 C-5.33 5.99 -5.66 6.98 -6 8 C-10.33333333 12.66666667 -10.33333333 12.66666667 -13 14 C-11.33857117 7.65636265 -7.40820598 0 0 0 Z " fill="#879AA2" transform="translate(53,34)"/>
<path d="M0 0 C0.33 0 0.66 0 1 0 C1 3.96 1 7.92 1 12 C-1.64 12 -4.28 12 -7 12 C-7 11.67 -7 11.34 -7 11 C-5.35 10.67 -3.7 10.34 -2 10 C-1.34 6.7 -0.68 3.4 0 0 Z " fill="#D4E0D5" transform="translate(95,38)"/>
<path d="M0 0 C0.66 0 1.32 0 2 0 C3.60080151 4.00200378 2.29279692 7.04556236 1 11 C0.67 11 0.34 11 0 11 C0 7.37 0 3.74 0 0 Z " fill="#F5FBFC" transform="translate(103,136)"/>
<path d="M0 0 C0 0.66 0 1.32 0 2 C-2.31 3.32 -4.62 4.64 -7 6 C-7.33 5.01 -7.66 4.02 -8 3 C-2.25 0 -2.25 0 0 0 Z " fill="#EAEDE5" transform="translate(155,67)"/>
<path d="M0 0 C0.433125 0.9590625 0.433125 0.9590625 0.875 1.9375 C1.82823451 4.15206079 1.82823451 4.15206079 4 5 C4.33 5.99 4.66 6.98 5 8 C1.63279613 6.60667426 0.0140476 5.0210714 -2 2 C-1.34 2 -0.68 2 0 2 C0 1.34 0 0.68 0 0 Z " fill="#060C14" transform="translate(155,34)"/>
</svg>
